<svg width="180" height="180" viewBox="0 0 180 180" fill="none" xmlns="http://www.w3.org/2000/svg">
<g filter="url(#filter0_i_101_16)">
<path d="M7.25 112.5V116.5H11.25H22.5H26.5V112.5C26.5 77.5841 55.0841 49 90 49C124.916 49 153.5 77.5841 153.5 112.5V116.5H157.5H168.75H172.75V112.5C172.75 66.4159 136.084 29.75 90 29.75C43.9159 29.75 7.25 66.4159 7.25 112.5ZM90 74.75C68.6659 74.75 52.25 91.1659 52.25 112.5C52.25 133.834 68.6659 150.25 90 150.25C111.334 150.25 127.75 133.834 127.75 112.5C127.75 91.1659 111.334 74.75 90 74.75ZM90 131C79.8341 131 71.5 122.666 71.5 112.5C71.5 102.334 79.8341 94 90 94C100.166 94 108.5 102.334 108.5 112.5C108.5 122.666 100.166 131 90 131Z" fill="#F0E3B4" stroke="#F0E3B4" stroke-width="8"/>
</g>
<defs>
<filter id="filter0_i_101_16" x="3.25" y="25.75" width="173.5" height="132.5" filterUnits="userSpaceOnUse" color-interpolation-filters="sRGB">
<feFlood flood-opacity="0" result="BackgroundImageFix"/>
<feBlend mode="normal" in="SourceGraphic" in2="BackgroundImageFix" result="shape"/>
<feColorMatrix in="SourceAlpha" type="matrix" values="0 0 0 0 0 0 0 0 0 0 0 0 0 0 0 0 0 0 127 0" result="hardAlpha"/>
<feOffset dy="4"/>
<feGaussianBlur stdDeviation="2"/>
<feComposite in2="hardAlpha" operator="arithmetic" k2="-1" k3="1"/>
<feColorMatrix type="matrix" values="0 0 0 0 0 0 0 0 0 0 0 0 0 0 0 0 0 0 0.15 0"/>
<feBlend mode="normal" in2="shape" result="effect1_innerShadow_101_16"/>
</filter>
</defs>
</svg>
