<svg width="248" height="184" viewBox="0 0 248 184" fill="none" xmlns="http://www.w3.org/2000/svg">
<g filter="url(#filter0_i_101_14)">
<path d="M5.25 124.5V129.5H10.25H26.5H31.5V124.5C31.5 73.6364 73.1364 32 124 32C174.864 32 216.5 73.6364 216.5 124.5V129.5H221.5H237.75H242.75V124.5C242.75 58.3636 190.136 5.75 124 5.75C57.8636 5.75 5.25 58.3636 5.25 124.5ZM124 70.75C93.6136 70.75 70.25 94.1136 70.25 124.5C70.25 154.886 93.6136 178.25 124 178.25C154.386 178.25 177.75 154.886 177.75 124.5C177.75 94.1136 154.386 70.75 124 70.75ZM124 152C108.886 152 96.5 139.614 96.5 124.5C96.5 109.386 108.886 97 124 97C139.114 97 151.5 109.386 151.5 124.5C151.5 139.614 139.114 152 124 152Z" fill="#F0E3B4" stroke="#F0E3B4" stroke-width="10"/>
</g>
<defs>
<filter id="filter0_i_101_14" x="0.25" y="0.75" width="247.5" height="186.5" filterUnits="userSpaceOnUse" color-interpolation-filters="sRGB">
<feFlood flood-opacity="0" result="BackgroundImageFix"/>
<feBlend mode="normal" in="SourceGraphic" in2="BackgroundImageFix" result="shape"/>
<feColorMatrix in="SourceAlpha" type="matrix" values="0 0 0 0 0 0 0 0 0 0 0 0 0 0 0 0 0 0 127 0" result="hardAlpha"/>
<feOffset dy="4"/>
<feGaussianBlur stdDeviation="2"/>
<feComposite in2="hardAlpha" operator="arithmetic" k2="-1" k3="1"/>
<feColorMatrix type="matrix" values="0 0 0 0 0 0 0 0 0 0 0 0 0 0 0 0 0 0 0.15 0"/>
<feBlend mode="normal" in2="shape" result="effect1_innerShadow_101_14"/>
</filter>
</defs>
</svg>
